<?xml version="1.0" standalone="no"?>
<?xml-stylesheet href="./plutchik.css" type="text/css"?>
<!DOCTYPE svg PUBLIC "-//W3C//DTD SVG 1.1//EN" 
  "http://www.w3.org/Graphics/SVG/1.1/DTD/svg11.dtd">
<svg xmlns="http://www.w3.org/2000/svg" xmlns:xlink="http://www.w3.org/1999/xlink" viewBox="-50 -50 100 100">
<path class="joy" d="M 0,0 L 11,-28 Q 0,-50 -11,-28 L 0,0 z"></path>
<path class="trust" d="M 0,0 L 28,-11 Q 35,-35 11,-28 L 0,0 z"></path>
<path class="fear" d="M 0,0 L 28,11 Q 50,0 28,-11 L 0,0 z"></path>
<path class="surprise" d="M 0,0 L 11,28 Q 35,35 28,11 L 0,0 z"></path>
<path class="sadness" d="M 0,0 L -11,28 Q 0,50 11,28 L 0,0 z"></path>
<path class="disgust" d="M 0,0 L -28,11 Q -35,35 -11,28 L 0,0 z"></path>
<path class="anger" d="M 0,0 L -28,-11 Q -50,0 -28,11 L 0,0 z"></path>
<path class="anticipation" d="M 0,0 L -11,-28 Q -35,-35 -28,-11 L 0,0 z"></path>
</svg>