<svg viewBox="0 0 100 100" xmlns="http://www.w3.org/2000/svg" xmlns:xlink="http://www.w3.org/1999/xlink">
<link xmlns="http://www.w3.org/1999/xhtml" rel="stylesheet" href="./plutchik.css" type="text/css"/>
<g transform="matrix(1,0,0,1,0,0)" fill="#ffffff" id="points">
<circle cx="18" cy="18" r="8" class="anticipation"></circle>
<circle cx="34" cy="18" r="4"></circle>
<circle cx="50" cy="18" r="7" class="joy"></circle>
<circle cx="66" cy="18" r="4"></circle>
<circle cx="82" cy="18" r="8" class="trust"></circle>

<circle cx="18" cy="34" r="4"></circle>
<circle cx="34" cy="34" r="7" class="interest"></circle>
<circle cx="50" cy="34" r="4" class="serenity"></circle>
<circle cx="66" cy="34" r="7" class="acceptance"></circle>
<circle cx="82" cy="34" r="4"></circle>

<circle cx="18" cy="50" r="7" class="anger"></circle>
<circle cx="34" cy="50" r="4" class="annoyance"></circle>
<circle cx="50" cy="50" r="3"></circle>
<circle cx="66" cy="50" r="4" class="apprehension"></circle>
<circle cx="82" cy="50" r="7" class="fear"></circle>

<circle cx="18" cy="66" r="4"></circle>
<circle cx="34" cy="66" r="7" class="boredom"></circle>
<circle cx="50" cy="66" r="4" class="persiveness"></circle>
<circle cx="66" cy="66" r="7" class="distraction"></circle>
<circle cx="82" cy="66" r="4"></circle>

<circle cx="18" cy="82" r="8" class="disgust"></circle>
<circle cx="34" cy="82" r="4"></circle>
<circle cx="50" cy="82" r="7" class="sadness"></circle>
<circle cx="66" cy="82" r="4"></circle>
<circle cx="82" cy="82" r="8" class="surprise"></circle>
</g>
</svg>