<?xml version="1.0" encoding="UTF-8"?>
<!-- Do not edit this file with editors other than draw.io -->
<!DOCTYPE svg PUBLIC "-//W3C//DTD SVG 1.1//EN" "http://www.w3.org/Graphics/SVG/1.1/DTD/svg11.dtd">
<svg xmlns="http://www.w3.org/2000/svg" xmlns:xlink="http://www.w3.org/1999/xlink" version="1.1" width="105px" height="104px" viewBox="-1 -1 105 104" style=""><defs/><g><g><ellipse cx="52" cy="51" rx="40" ry="40" fill="transparent" stroke="rgb(0, 0, 0)" pointer-events="all"/></g><g><path d="M 40 2 Q 64 2 64 12 Q 64 22 40 22 Q 52 12 40 2 Z" fill="#edc500" stroke="rgb(0, 0, 0)" stroke-miterlimit="10" transform="rotate(-90,52,12)" pointer-events="all"/></g><g><path d="M 68 13 Q 92 13 92 23 Q 92 33 68 33 Q 80 23 68 13 Z" fill="#7abd0d" stroke="rgb(0, 0, 0)" stroke-miterlimit="10" transform="rotate(-45,80,23)" pointer-events="all"/></g><g><path d="M 80 41 Q 104 41 104 51 Q 104 61 80 61 Q 92 51 80 41 Z" fill="#007b33" stroke="rgb(0, 0, 0)" stroke-miterlimit="10" pointer-events="all"/></g><g><path d="M 68 69 Q 92 69 92 79 Q 92 89 68 89 Q 80 79 68 69 Z" fill="#0080ab" stroke="rgb(0, 0, 0)" stroke-miterlimit="10" transform="rotate(45,80,79)" pointer-events="all"/></g><g><path d="M 40 81 Q 64 81 64 91 Q 64 101 40 101 Q 52 91 40 81 Z" fill="#1f6dad" stroke="rgb(0, 0, 0)" stroke-miterlimit="10" transform="rotate(90,52,91)" pointer-events="all"/></g><g><path d="M 12 69 Q 36 69 36 79 Q 36 89 12 89 Q 24 79 12 69 Z" fill="#7b4ea3" stroke="rgb(0, 0, 0)" stroke-miterlimit="10" transform="rotate(-226,24,79)" pointer-events="all"/></g><g><path d="M 0 41 Q 24 41 24 51 Q 24 61 0 61 Q 12 51 0 41 Z" fill="#dc0047" stroke="rgb(0, 0, 0)" stroke-miterlimit="10" transform="rotate(-180,12,51)" pointer-events="all"/></g><g><path d="M 12 13 Q 36 13 36 23 Q 36 33 12 33 Q 24 23 12 13 Z" fill="#e87200" stroke="rgb(0, 0, 0)" stroke-miterlimit="10" transform="rotate(-135,24,23)" pointer-events="all"/></g><g><path d="M 71 44.5 L 81 51 L 71 57.5 Z" fill="#007b33" stroke="rgb(0, 0, 0)" stroke-miterlimit="10" pointer-events="all"/></g><g><path d="M 64 61 L 74 67.5 L 64 74 Z" fill="#0080ab" stroke="rgb(0, 0, 0)" stroke-miterlimit="10" transform="rotate(45,69,67.5)" pointer-events="all"/></g><g><path d="M 64 28 L 74 34.5 L 64 41 Z" fill="#7abd0d" stroke="rgb(0, 0, 0)" stroke-miterlimit="10" transform="rotate(-45,69,34.5)" pointer-events="all"/></g><g><path d="M 47 21 L 57 27.5 L 47 34 Z" fill="#edc500" stroke="rgb(0, 0, 0)" stroke-miterlimit="10" transform="rotate(-90,52,27.5)" pointer-events="all"/></g><g><path d="M 30 28 L 40 34.5 L 30 41 Z" fill="#e87200" stroke="rgb(0, 0, 0)" stroke-miterlimit="10" transform="rotate(-135,35,34.5)" pointer-events="all"/></g><g><path d="M 23 44.5 L 33 51 L 23 57.5 Z" fill="#dc0047" stroke="rgb(0, 0, 0)" stroke-miterlimit="10" transform="rotate(-180,28,51)" pointer-events="all"/></g><g><path d="M 30 61 L 40 67.5 L 30 74 Z" fill="#7b4ea3" stroke="rgb(0, 0, 0)" stroke-miterlimit="10" transform="rotate(135,35,67.5)" pointer-events="all"/></g><g><path d="M 47 68 L 57 74.5 L 47 81 Z" fill="#1f6dad" stroke="rgb(0, 0, 0)" stroke-miterlimit="10" transform="rotate(90,52,74.5)" pointer-events="all"/></g></g></svg>